<svg width="741" height="329" xmlns="http://www.w3.org/2000/svg" xmlns:xlink="http://www.w3.org/1999/xlink" overflow="hidden"><g transform="translate(-14 -13)"><text font-family="Meiryo,Meiryo_MSFontService,sans-serif" font-weight="400" font-size="16" transform="translate(144.439 198)">SDA</text><text font-family="Meiryo,Meiryo_MSFontService,sans-serif" font-weight="400" font-size="16" transform="translate(116.761 139)">SYSCLK</text><text font-family="Meiryo,Meiryo_MSFontService,sans-serif" font-weight="400" font-size="16" transform="translate(147.545 258)">SCL</text><text fill="#0000FF" font-family="Meiryo,Meiryo_MSFontService,sans-serif" font-style="italic" font-weight="400" font-size="16" transform="translate(79.1254 300)">I2C</text><text fill="#0000FF" font-family="Meiryo,Meiryo_MSFontService,sans-serif" font-style="italic" font-weight="400" font-size="16" transform="translate(111.625 300)">Controller</text><text fill="#0000FF" font-family="Meiryo,Meiryo_MSFontService,sans-serif" font-style="italic" font-weight="400" font-size="16" transform="translate(88.212 319)">Timing State</text><path d="M0 0 3.12031 34.0195" stroke="#000000" stroke-width="2" stroke-miterlimit="8" fill="none" fill-rule="evenodd" transform="matrix(-1 0 0 1 195.12 116)"/><path d="M195 115 201.241 115" stroke="#000000" stroke-width="2" stroke-miterlimit="8" fill="none" fill-rule="evenodd"/><path d="M202 116 205.12 150.02" stroke="#000000" stroke-width="2" stroke-miterlimit="8" fill="none" fill-rule="evenodd"/><path d="M204 149 210.241 149" stroke="#000000" stroke-width="2" stroke-miterlimit="8" fill="none" fill-rule="evenodd"/><path d="M0 0 3.12031 34.0195" stroke="#000000" stroke-width="2" stroke-miterlimit="8" fill="none" fill-rule="evenodd" transform="matrix(-1 0 0 1 213.12 116)"/><path d="M214 115 220.241 115" stroke="#000000" stroke-width="2" stroke-miterlimit="8" fill="none" fill-rule="evenodd"/><path d="M220 116 223.12 150.02" stroke="#000000" stroke-width="2" stroke-miterlimit="8" fill="none" fill-rule="evenodd"/><path d="M223 149 229.241 149" stroke="#000000" stroke-width="2" stroke-miterlimit="8" fill="none" fill-rule="evenodd"/><path d="M0 0 3.12031 34.0195" stroke="#000000" stroke-width="2" stroke-miterlimit="8" fill="none" fill-rule="evenodd" transform="matrix(-1 0 0 1 232.12 116)"/><path d="M232 115 238.241 115" stroke="#000000" stroke-width="2" stroke-miterlimit="8" fill="none" fill-rule="evenodd"/><path d="M238 116 241.12 150.02" stroke="#000000" stroke-width="2" stroke-miterlimit="8" fill="none" fill-rule="evenodd"/><path d="M241 149 247.241 149" stroke="#000000" stroke-width="2" stroke-miterlimit="8" fill="none" fill-rule="evenodd"/><path d="M0 0 3.12031 34.0195" stroke="#000000" stroke-width="2" stroke-miterlimit="8" fill="none" fill-rule="evenodd" transform="matrix(-1 0 0 1 251.12 116)"/><path d="M251 115 257.241 115" stroke="#000000" stroke-width="2" stroke-miterlimit="8" fill="none" fill-rule="evenodd"/><path d="M257 116 260.12 150.02" stroke="#000000" stroke-width="2" stroke-miterlimit="8" fill="none" fill-rule="evenodd"/><path d="M260 149 266.241 149" stroke="#000000" stroke-width="2" stroke-miterlimit="8" fill="none" fill-rule="evenodd"/><path d="M0 0 3.12031 34.0195" stroke="#000000" stroke-width="2" stroke-miterlimit="8" fill="none" fill-rule="evenodd" transform="matrix(-1 0 0 1 269.12 116)"/><path d="M269 115 275.241 115" stroke="#000000" stroke-width="2" stroke-miterlimit="8" fill="none" fill-rule="evenodd"/><path d="M276 116 279.12 150.02" stroke="#000000" stroke-width="2" stroke-miterlimit="8" fill="none" fill-rule="evenodd"/><path d="M279 149 285.241 149" stroke="#000000" stroke-width="2" stroke-miterlimit="8" fill="none" fill-rule="evenodd"/><path d="M0 0 3.12031 34.0195" stroke="#000000" stroke-width="2" stroke-miterlimit="8" fill="none" fill-rule="evenodd" transform="matrix(-1 0 0 1 288.12 116)"/><path d="M288 115 294.241 115" stroke="#000000" stroke-width="2" stroke-miterlimit="8" fill="none" fill-rule="evenodd"/><path d="M294 116 297.12 150.02" stroke="#000000" stroke-width="2" stroke-miterlimit="8" fill="none" fill-rule="evenodd"/><path d="M297 149 303.241 149" stroke="#000000" stroke-width="2" stroke-miterlimit="8" fill="none" fill-rule="evenodd"/><path d="M0 0 3.12031 34.0195" stroke="#000000" stroke-width="2" stroke-miterlimit="8" fill="none" fill-rule="evenodd" transform="matrix(-1 0 0 1 306.12 116)"/><path d="M306 115 312.241 115" stroke="#000000" stroke-width="2" stroke-miterlimit="8" fill="none" fill-rule="evenodd"/><path d="M312 116 315.12 150.02" stroke="#000000" stroke-width="2" stroke-miterlimit="8" fill="none" fill-rule="evenodd"/><path d="M315 149 321.241 149" stroke="#000000" stroke-width="2" stroke-miterlimit="8" fill="none" fill-rule="evenodd"/><path d="M0 0 3.12031 34.0195" stroke="#000000" stroke-width="2" stroke-miterlimit="8" fill="none" fill-rule="evenodd" transform="matrix(-1 0 0 1 325.12 116)"/><path d="M325 115 331.241 115" stroke="#000000" stroke-width="2" stroke-miterlimit="8" fill="none" fill-rule="evenodd"/><path d="M331 116 334.12 150.02" stroke="#000000" stroke-width="2" stroke-miterlimit="8" fill="none" fill-rule="evenodd"/><path d="M334 149 340.241 149" stroke="#000000" stroke-width="2" stroke-miterlimit="8" fill="none" fill-rule="evenodd"/><path d="M0 0 3.12031 34.0195" stroke="#000000" stroke-width="2" stroke-miterlimit="8" fill="none" fill-rule="evenodd" transform="matrix(-1 0 0 1 343.12 116)"/><path d="M343 115 349.241 115" stroke="#000000" stroke-width="2" stroke-miterlimit="8" fill="none" fill-rule="evenodd"/><path d="M349 116 352.12 150.02" stroke="#000000" stroke-width="2" stroke-miterlimit="8" fill="none" fill-rule="evenodd"/><path d="M352 149 358.241 149" stroke="#000000" stroke-width="2" stroke-miterlimit="8" fill="none" fill-rule="evenodd"/><path d="M0 0 3.12031 34.0195" stroke="#000000" stroke-width="2" stroke-miterlimit="8" fill="none" fill-rule="evenodd" transform="matrix(-1 0 0 1 362.12 116)"/><path d="M362 115 368.241 115" stroke="#000000" stroke-width="2" stroke-miterlimit="8" fill="none" fill-rule="evenodd"/><path d="M368 116 371.12 150.02" stroke="#000000" stroke-width="2" stroke-miterlimit="8" fill="none" fill-rule="evenodd"/><path d="M371 149 377.241 149" stroke="#000000" stroke-width="2" stroke-miterlimit="8" fill="none" fill-rule="evenodd"/><path d="M0 0 3.12031 34.0195" stroke="#000000" stroke-width="2" stroke-miterlimit="8" fill="none" fill-rule="evenodd" transform="matrix(-1 0 0 1 380.12 116)"/><path d="M380 115 386.241 115" stroke="#000000" stroke-width="2" stroke-miterlimit="8" fill="none" fill-rule="evenodd"/><path d="M386 116 389.12 150.02" stroke="#000000" stroke-width="2" stroke-miterlimit="8" fill="none" fill-rule="evenodd"/><path d="M389 149 395.241 149" stroke="#000000" stroke-width="2" stroke-miterlimit="8" fill="none" fill-rule="evenodd"/><path d="M0 0 3.12031 34.0195" stroke="#000000" stroke-width="2" stroke-miterlimit="8" fill="none" fill-rule="evenodd" transform="matrix(-1 0 0 1 398.12 116)"/><path d="M398 115 404.241 115" stroke="#000000" stroke-width="2" stroke-miterlimit="8" fill="none" fill-rule="evenodd"/><path d="M405 116 408.12 150.02" stroke="#000000" stroke-width="2" stroke-miterlimit="8" fill="none" fill-rule="evenodd"/><path d="M408 149 414.241 149" stroke="#000000" stroke-width="2" stroke-miterlimit="8" fill="none" fill-rule="evenodd"/><path d="M0 0 3.12031 34.0195" stroke="#000000" stroke-width="2" stroke-miterlimit="8" fill="none" fill-rule="evenodd" transform="matrix(-1 0 0 1 417.12 116)"/><path d="M417 115 423.241 115" stroke="#000000" stroke-width="2" stroke-miterlimit="8" fill="none" fill-rule="evenodd"/><path d="M423 116 426.12 150.02" stroke="#000000" stroke-width="2" stroke-miterlimit="8" fill="none" fill-rule="evenodd"/><path d="M426 149 432.241 149" stroke="#000000" stroke-width="2" stroke-miterlimit="8" fill="none" fill-rule="evenodd"/><path d="M0 0 3.12031 34.0195" stroke="#000000" stroke-width="2" stroke-miterlimit="8" fill="none" fill-rule="evenodd" transform="matrix(-1 0 0 1 436.12 116)"/><path d="M436 115 442.241 115" stroke="#000000" stroke-width="2" stroke-miterlimit="8" fill="none" fill-rule="evenodd"/><path d="M442 116 445.12 150.02" stroke="#000000" stroke-width="2" stroke-miterlimit="8" fill="none" fill-rule="evenodd"/><path d="M445 149 451.241 149" stroke="#000000" stroke-width="2" stroke-miterlimit="8" fill="none" fill-rule="evenodd"/><path d="M0 0 3.12031 34.0195" stroke="#000000" stroke-width="2" stroke-miterlimit="8" fill="none" fill-rule="evenodd" transform="matrix(-1 0 0 1 454.12 116)"/><path d="M454 115 460.241 115" stroke="#000000" stroke-width="2" stroke-miterlimit="8" fill="none" fill-rule="evenodd"/><path d="M460 116 463.12 150.02" stroke="#000000" stroke-width="2" stroke-miterlimit="8" fill="none" fill-rule="evenodd"/><path d="M463 149 469.241 149" stroke="#000000" stroke-width="2" stroke-miterlimit="8" fill="none" fill-rule="evenodd"/><path d="M0 0 3.12031 34.0195" stroke="#000000" stroke-width="2" stroke-miterlimit="8" fill="none" fill-rule="evenodd" transform="matrix(-1 0 0 1 472.12 116)"/><path d="M472 115 478.241 115" stroke="#000000" stroke-width="2" stroke-miterlimit="8" fill="none" fill-rule="evenodd"/><path d="M479 116 482.12 150.02" stroke="#000000" stroke-width="2" stroke-miterlimit="8" fill="none" fill-rule="evenodd"/><path d="M482 149 488.241 149" stroke="#000000" stroke-width="2" stroke-miterlimit="8" fill="none" fill-rule="evenodd"/><path d="M0 0 3.12031 34.0195" stroke="#000000" stroke-width="2" stroke-miterlimit="8" fill="none" fill-rule="evenodd" transform="matrix(-1 0 0 1 491.12 116)"/><path d="M491 115 497.241 115" stroke="#000000" stroke-width="2" stroke-miterlimit="8" fill="none" fill-rule="evenodd"/><path d="M497 116 500.12 150.02" stroke="#000000" stroke-width="2" stroke-miterlimit="8" fill="none" fill-rule="evenodd"/><path d="M501 149 507.241 149" stroke="#000000" stroke-width="2" stroke-miterlimit="8" fill="none" fill-rule="evenodd"/><path d="M0 0 3.12031 34.0195" stroke="#000000" stroke-width="2" stroke-miterlimit="8" fill="none" fill-rule="evenodd" transform="matrix(-1 0 0 1 510.12 116)"/><path d="M510 115 516.241 115" stroke="#000000" stroke-width="2" stroke-miterlimit="8" fill="none" fill-rule="evenodd"/><path d="M516 116 519.12 150.02" stroke="#000000" stroke-width="2" stroke-miterlimit="8" fill="none" fill-rule="evenodd"/><path d="M519 149 525.241 149" stroke="#000000" stroke-width="2" stroke-miterlimit="8" fill="none" fill-rule="evenodd"/><path d="M0 0 3.12031 34.0195" stroke="#000000" stroke-width="2" stroke-miterlimit="8" fill="none" fill-rule="evenodd" transform="matrix(-1 0 0 1 528.12 116)"/><path d="M528 115 534.241 115" stroke="#000000" stroke-width="2" stroke-miterlimit="8" fill="none" fill-rule="evenodd"/><path d="M535 116 538.12 150.02" stroke="#000000" stroke-width="2" stroke-miterlimit="8" fill="none" fill-rule="evenodd"/><path d="M537 149 543.241 149" stroke="#000000" stroke-width="2" stroke-miterlimit="8" fill="none" fill-rule="evenodd"/><path d="M0 0 3.12031 34.0195" stroke="#000000" stroke-width="2" stroke-miterlimit="8" fill="none" fill-rule="evenodd" transform="matrix(-1 0 0 1 547.12 116)"/><path d="M547 115 553.241 115" stroke="#000000" stroke-width="2" stroke-miterlimit="8" fill="none" fill-rule="evenodd"/><path d="M553 116 556.12 150.02" stroke="#000000" stroke-width="2" stroke-miterlimit="8" fill="none" fill-rule="evenodd"/><path d="M556 149 562.241 149" stroke="#000000" stroke-width="2" stroke-miterlimit="8" fill="none" fill-rule="evenodd"/><path d="M0 0 3.12031 34.0195" stroke="#000000" stroke-width="2" stroke-miterlimit="8" fill="none" fill-rule="evenodd" transform="matrix(-1 0 0 1 566.12 116)"/><path d="M566 115 572.241 115" stroke="#000000" stroke-width="2" stroke-miterlimit="8" fill="none" fill-rule="evenodd"/><path d="M572 116 575.12 150.02" stroke="#000000" stroke-width="2" stroke-miterlimit="8" fill="none" fill-rule="evenodd"/><path d="M575 149 581.241 149" stroke="#000000" stroke-width="2" stroke-miterlimit="8" fill="none" fill-rule="evenodd"/><path d="M0 0 3.12031 34.0195" stroke="#000000" stroke-width="2" stroke-miterlimit="8" fill="none" fill-rule="evenodd" transform="matrix(-1 0 0 1 584.12 116)"/><path d="M584 115 590.241 115" stroke="#000000" stroke-width="2" stroke-miterlimit="8" fill="none" fill-rule="evenodd"/><path d="M590 116 593.12 150.02" stroke="#000000" stroke-width="2" stroke-miterlimit="8" fill="none" fill-rule="evenodd"/><path d="M594 149 600.241 149" stroke="#000000" stroke-width="2" stroke-miterlimit="8" fill="none" fill-rule="evenodd"/><path d="M0 0 3.12031 34.0195" stroke="#000000" stroke-width="2" stroke-miterlimit="8" fill="none" fill-rule="evenodd" transform="matrix(-1 0 0 1 603.12 116)"/><path d="M603 115 609.241 115" stroke="#000000" stroke-width="2" stroke-miterlimit="8" fill="none" fill-rule="evenodd"/><path d="M609 116 612.12 150.02" stroke="#000000" stroke-width="2" stroke-miterlimit="8" fill="none" fill-rule="evenodd"/><path d="M612 149 618.241 149" stroke="#000000" stroke-width="2" stroke-miterlimit="8" fill="none" fill-rule="evenodd"/><path d="M0 0 3.12031 34.0195" stroke="#000000" stroke-width="2" stroke-miterlimit="8" fill="none" fill-rule="evenodd" transform="matrix(-1 0 0 1 621.12 116)"/><path d="M622 115 628.241 115" stroke="#000000" stroke-width="2" stroke-miterlimit="8" fill="none" fill-rule="evenodd"/><path d="M628 116 631.12 150.02" stroke="#000000" stroke-width="2" stroke-miterlimit="8" fill="none" fill-rule="evenodd"/><path d="M631 149 637.241 149" stroke="#000000" stroke-width="2" stroke-miterlimit="8" fill="none" fill-rule="evenodd"/><path d="M195 173 198.12 207.02" stroke="#000000" stroke-width="2" stroke-miterlimit="8" fill="none" fill-rule="evenodd"/><path d="M195 267 251.22 267" stroke="#000000" stroke-width="2" stroke-miterlimit="8" fill="none" fill-rule="evenodd"/><rect x="194.5" y="286.5" width="56" height="38" stroke="#CC9900" stroke-width="0.666667" stroke-miterlimit="8" fill="#FFFFCC"/><text font-family="Meiryo,Meiryo_MSFontService,sans-serif" font-weight="400" font-size="16" transform="translate(198.813 310)">t</text><text font-family="Meiryo,Meiryo_MSFontService,sans-serif" font-weight="400" font-size="11" transform="translate(204.813 313)">SU;DAT</text><rect x="250.5" y="286.5" width="110" height="38" stroke="#ED7D31" stroke-width="0.666667" stroke-miterlimit="8" fill="#F4B183"/><text font-family="Meiryo,Meiryo_MSFontService,sans-serif" font-weight="400" font-size="16" transform="translate(287.808 310)">t</text><text font-family="Meiryo,Meiryo_MSFontService,sans-serif" font-weight="400" font-size="11" transform="translate(293.808 313)">HIGH</text><path d="M0 0 3.12031 34.0195" stroke="#000000" stroke-width="2" stroke-miterlimit="8" fill="none" fill-rule="evenodd" transform="matrix(-1 0 0 1 254.12 234)"/><path d="M254 233 361.631 233" stroke="#000000" stroke-width="2" stroke-miterlimit="8" fill="none" fill-rule="evenodd"/><path d="M361 233 364.12 267.02" stroke="#000000" stroke-width="2" stroke-miterlimit="8" fill="none" fill-rule="evenodd"/><path d="M198 208 416.215 208" stroke="#000000" stroke-width="2" stroke-miterlimit="8" fill="none" fill-rule="evenodd"/><rect x="361.5" y="286.5" width="56" height="38" stroke="#5B9BD5" stroke-width="0.666667" stroke-miterlimit="8" fill="#9DC3E6"/><text font-family="Meiryo,Meiryo_MSFontService,sans-serif" font-weight="400" font-size="16" transform="translate(364.596 310)">t</text><text font-family="Meiryo,Meiryo_MSFontService,sans-serif" font-weight="400" font-size="11" transform="translate(370.596 313)">HD;DAT</text><rect x="416.5" y="286.5" width="56" height="38" stroke="#CC9900" stroke-width="0.666667" stroke-miterlimit="8" fill="#FFFFCC"/><text font-family="Meiryo,Meiryo_MSFontService,sans-serif" font-weight="400" font-size="16" transform="translate(420.83 310)">t</text><text font-family="Meiryo,Meiryo_MSFontService,sans-serif" font-weight="400" font-size="11" transform="translate(426.83 313)">SU;DAT</text><path d="M364 267 472.751 267" stroke="#000000" stroke-width="2" stroke-miterlimit="8" fill="none" fill-rule="evenodd"/><rect x="472.5" y="286.5" width="110" height="38" stroke="#0000FF" stroke-width="0.666667" stroke-miterlimit="8" fill="#CCFFFF"/><text font-family="Meiryo,Meiryo_MSFontService,sans-serif" font-weight="400" font-size="16" transform="translate(504.172 310)">t</text><text font-family="Meiryo,Meiryo_MSFontService,sans-serif" font-weight="400" font-size="11" transform="translate(510.172 313)">SU;STA</text><path d="M0 0 3.12031 34.0195" stroke="#000000" stroke-width="2" stroke-miterlimit="8" fill="none" fill-rule="evenodd" transform="matrix(-1 0 0 1 475.12 234)"/><path d="M475 233 636.838 233" stroke="#000000" stroke-width="2" stroke-miterlimit="8" fill="none" fill-rule="evenodd"/><path d="M638 233 641.12 267.02" stroke="#000000" stroke-width="2" stroke-miterlimit="8" fill="none" fill-rule="evenodd"/><rect x="638.5" y="286.5" width="56" height="38" stroke="#5B9BD5" stroke-width="0.666667" stroke-miterlimit="8" fill="#9DC3E6"/><text font-family="Meiryo,Meiryo_MSFontService,sans-serif" font-weight="400" font-size="16" transform="translate(641.861 310)">t</text><text font-family="Meiryo,Meiryo_MSFontService,sans-serif" font-weight="400" font-size="11" transform="translate(647.861 313)">HD;DAT</text><rect x="694.5" y="286.5" width="55" height="38" stroke="#CC9900" stroke-width="0.666667" stroke-miterlimit="8" fill="#FFFFCC"/><text font-family="Meiryo,Meiryo_MSFontService,sans-serif" font-weight="400" font-size="16" transform="translate(698.095 310)">t</text><text font-family="Meiryo,Meiryo_MSFontService,sans-serif" font-weight="400" font-size="11" transform="translate(704.095 313)">SU;DAT</text><path d="M642 267 750.751 267" stroke="#000000" stroke-width="2" stroke-miterlimit="8" fill="none" fill-rule="evenodd"/><path d="M0 0 3.12031 34.0195" stroke="#000000" stroke-width="2" stroke-miterlimit="8" fill="none" fill-rule="evenodd" transform="matrix(-1 0 0 1 420.12 174)"/><path d="M420 174 583.217 174" stroke="#000000" stroke-width="2" stroke-miterlimit="8" fill="none" fill-rule="evenodd"/><path d="M250.5 81.5001 250.5 341.609" stroke="#000000" stroke-width="0.666667" stroke-miterlimit="8" stroke-dasharray="2.66667 2" fill="none" fill-rule="evenodd"/><path d="M360.5 81.5001 360.5 341.609" stroke="#000000" stroke-width="0.666667" stroke-miterlimit="8" stroke-dasharray="2.66667 2" fill="none" fill-rule="evenodd"/><path d="M416.5 81.5001 416.5 341.609" stroke="#000000" stroke-width="0.666667" stroke-miterlimit="8" stroke-dasharray="2.66667 2" fill="none" fill-rule="evenodd"/><path d="M472.5 81.5001 472.5 341.609" stroke="#000000" stroke-width="0.666667" stroke-miterlimit="8" stroke-dasharray="2.66667 2" fill="none" fill-rule="evenodd"/><path d="M582.5 81.5001 582.5 341.609" stroke="#000000" stroke-width="0.666667" stroke-miterlimit="8" stroke-dasharray="2.66667 2" fill="none" fill-rule="evenodd"/><path d="M0 0 3.12031 34.0195" stroke="#000000" stroke-width="2" stroke-miterlimit="8" fill="none" fill-rule="evenodd" transform="matrix(-1 0 0 1 641.12 116)"/><path d="M641 115 647.241 115" stroke="#000000" stroke-width="2" stroke-miterlimit="8" fill="none" fill-rule="evenodd"/><path d="M647 116 650.12 150.02" stroke="#000000" stroke-width="2" stroke-miterlimit="8" fill="none" fill-rule="evenodd"/><path d="M650 149 656.241 149" stroke="#000000" stroke-width="2" stroke-miterlimit="8" fill="none" fill-rule="evenodd"/><path d="M0 0 3.12031 34.0195" stroke="#000000" stroke-width="2" stroke-miterlimit="8" fill="none" fill-rule="evenodd" transform="matrix(-1 0 0 1 659.12 116)"/><path d="M659 115 665.241 115" stroke="#000000" stroke-width="2" stroke-miterlimit="8" fill="none" fill-rule="evenodd"/><path d="M665 116 668.12 150.02" stroke="#000000" stroke-width="2" stroke-miterlimit="8" fill="none" fill-rule="evenodd"/><path d="M668 149 674.241 149" stroke="#000000" stroke-width="2" stroke-miterlimit="8" fill="none" fill-rule="evenodd"/><path d="M0 0 3.12031 34.0195" stroke="#000000" stroke-width="2" stroke-miterlimit="8" fill="none" fill-rule="evenodd" transform="matrix(-1 0 0 1 677.12 116)"/><path d="M677 115 683.241 115" stroke="#000000" stroke-width="2" stroke-miterlimit="8" fill="none" fill-rule="evenodd"/><path d="M684 116 687.12 150.02" stroke="#000000" stroke-width="2" stroke-miterlimit="8" fill="none" fill-rule="evenodd"/><path d="M687 149 693.241 149" stroke="#000000" stroke-width="2" stroke-miterlimit="8" fill="none" fill-rule="evenodd"/><path d="M0 0 3.12031 34.0195" stroke="#000000" stroke-width="2" stroke-miterlimit="8" fill="none" fill-rule="evenodd" transform="matrix(-1 0 0 1 696.12 116)"/><path d="M696 115 702.241 115" stroke="#000000" stroke-width="2" stroke-miterlimit="8" fill="none" fill-rule="evenodd"/><path d="M702 116 705.12 150.02" stroke="#000000" stroke-width="2" stroke-miterlimit="8" fill="none" fill-rule="evenodd"/><path d="M705 149 711.241 149" stroke="#000000" stroke-width="2" stroke-miterlimit="8" fill="none" fill-rule="evenodd"/><path d="M0 0 3.12031 34.0195" stroke="#000000" stroke-width="2" stroke-miterlimit="8" fill="none" fill-rule="evenodd" transform="matrix(-1 0 0 1 715.12 116)"/><path d="M715 115 721.241 115" stroke="#000000" stroke-width="2" stroke-miterlimit="8" fill="none" fill-rule="evenodd"/><path d="M721 116 724.12 150.02" stroke="#000000" stroke-width="2" stroke-miterlimit="8" fill="none" fill-rule="evenodd"/><path d="M724 149 730.241 149" stroke="#000000" stroke-width="2" stroke-miterlimit="8" fill="none" fill-rule="evenodd"/><path d="M0 0 3.12031 34.0195" stroke="#000000" stroke-width="2" stroke-miterlimit="8" fill="none" fill-rule="evenodd" transform="matrix(-1 0 0 1 733.12 116)"/><path d="M733 115 739.241 115" stroke="#000000" stroke-width="2" stroke-miterlimit="8" fill="none" fill-rule="evenodd"/><path d="M740 116 743.12 150.02" stroke="#000000" stroke-width="2" stroke-miterlimit="8" fill="none" fill-rule="evenodd"/><path d="M742 149 748.241 149" stroke="#000000" stroke-width="2" stroke-miterlimit="8" fill="none" fill-rule="evenodd"/><path d="M0 0 3.12031 34.0195" stroke="#000000" stroke-width="2" stroke-miterlimit="8" fill="none" fill-rule="evenodd" transform="matrix(-1 0 0 1 751.12 116)"/><path d="M637.5 81.5001 637.5 341.609" stroke="#000000" stroke-width="0.666667" stroke-miterlimit="8" stroke-dasharray="2.66667 2" fill="none" fill-rule="evenodd"/><path d="M582 173 585.12 207.02" stroke="#000000" stroke-width="2" stroke-miterlimit="8" fill="none" fill-rule="evenodd"/><path d="M694.5 81.5001 694.5 341.609" stroke="#000000" stroke-width="0.666667" stroke-miterlimit="8" stroke-dasharray="2.66667 2" fill="none" fill-rule="evenodd"/><path d="M585 208 692.832 208" stroke="#000000" stroke-width="2" stroke-miterlimit="8" fill="none" fill-rule="evenodd"/><path d="M0 0 3.12031 34.0195" stroke="#000000" stroke-width="2" stroke-miterlimit="8" fill="none" fill-rule="evenodd" transform="matrix(-1 0 0 1 753.12 234)"/><path d="M750.5 81.5001 750.5 341.609" stroke="#000000" stroke-width="0.666667" stroke-miterlimit="8" stroke-dasharray="2.66667 2" fill="none" fill-rule="evenodd"/><rect x="581.5" y="286.5" width="56" height="38" stroke="#70AD47" stroke-width="0.666667" stroke-miterlimit="8" fill="#A9D18E"/><text font-family="Meiryo,Meiryo_MSFontService,sans-serif" font-weight="400" font-size="16" transform="translate(585.641 310)">t</text><text font-family="Meiryo,Meiryo_MSFontService,sans-serif" font-weight="400" font-size="11" transform="translate(591.641 313)">HD;STA</text><path d="M474.82 96.8334 580.642 96.8335 580.642 98.1668 474.82 98.1667ZM482.484 102.743 473.497 97.5001 482.484 92.2575C482.802 92.072 483.21 92.1795 483.396 92.4975 483.581 92.8155 483.474 93.2237 483.156 93.4092L475.156 98.0759 475.156 96.9242 483.156 101.591C483.474 101.776 483.581 102.185 483.396 102.503 483.21 102.821 482.802 102.928 482.484 102.743ZM572.978 92.2576 581.965 97.5002 572.978 102.743C572.66 102.928 572.251 102.821 572.066 102.503 571.88 102.185 571.988 101.776 572.306 101.591L580.306 96.9243 580.306 98.076 572.306 93.4093C571.988 93.2238 571.88 92.8156 572.066 92.4976 572.251 92.1795 572.66 92.0721 572.978 92.2576Z"/><path d="M0 0 20.4165 24.0096" stroke="#000000" stroke-width="1.33333" stroke-miterlimit="8" fill="none" fill-rule="evenodd" transform="matrix(1 0 0 -1 528.5 96.5096)"/><rect x="415" y="14" width="268" height="58" fill="#CCFFFF"/><text font-family="Meiryo,Meiryo_MSFontService,sans-serif" font-style="italic" font-weight="400" font-size="13" transform="translate(418.536 29)">Repeated Start Condition setup time[s]</text><text font-family="Meiryo,Meiryo_MSFontService,sans-serif" font-style="italic" font-weight="400" font-size="13" transform="translate(418.536 45)">= System Clock period[s]</text><text font-family="Meiryo,Meiryo_MSFontService,sans-serif" font-style="italic" font-weight="400" font-size="13" transform="translate(588.203 45)">×</text><text font-family="Meiryo,Meiryo_MSFontService,sans-serif" font-style="italic" font-weight="400" font-size="13" transform="translate(432.036 61)">(I2CM_TSUSTA+1)</text><path d="M0 0 3.12031 34.0195" stroke="#000000" stroke-width="2" stroke-miterlimit="8" fill="none" fill-rule="evenodd" transform="matrix(-1 0 0 1 697.12 174)"/><path d="M697 174 753.55 174" stroke="#000000" stroke-width="2" stroke-miterlimit="8" fill="none" fill-rule="evenodd"/></g></svg>